<svg id="Layer_5" enable-background="new 0 0 64 64" height="300" viewBox="0 0 64 64" width="300" xmlns="http://www.w3.org/2000/svg"><g><g><g><path d="m49 58v2c0 1.1-.9 2-2 2h-30c-1.1 0-2-.9-2-2v-2c0-1.1.9-2 2-2h3 24 3c1.1 0 2 .9 2 2z" fill="#969faa"/></g><g><path d="m44 56h-24c1.87-1.25 3-3.35 3-5.61v-.39h18v.39c0 2.26 1.13 4.36 3 5.61z" fill="#aab2bd"/></g><g><path d="m58 12h-52c-2.21 0-4 1.79-4 4v30c0 2.21 1.79 4 4 4h17 18 17c2.21 0 4-1.79 4-4v-30c0-2.21-1.79-4-4-4z" fill="#ccd1d9"/></g><g><path d="m57 16h-50c-.55 0-1 .45-1 1v24c0 .55.45 1 1 1h50c.55 0 1-.45 1-1v-24c0-.55-.45-1-1-1z" fill="#69d6f4"/></g><g><path d="m54 16v12c0 2.21-1.79 4-4 4h-15l-1.68 5.05c-.19.57-.72.95-1.32.95s-1.13-.38-1.32-.95l-1.68-5.05h-15c-2.21 0-4-1.79-4-4v-12-4-6c0-2.21 1.79-4 4-4h36c2.21 0 4 1.79 4 4v6z" fill="#ffeaa7"/></g><g><path d="m32 10c3.31 0 6 2.69 6 6v.51c0 1.6-.63 3.12-1.76 4.25l-.24.24v1c0 1.1-.9 2-2 2h-2-2c-1.1 0-2-.9-2-2v-1l-.24-.24c-1.13-1.13-1.76-2.65-1.76-4.25v-.51c0-3.31 2.69-6 6-6z" fill="#ccd1d9"/></g></g><g><path d="m47 45h2v2h-2z"/><path d="m55 45h2v2h-2z"/><path d="m51 45h2v2h-2z"/><path d="m20 25h2v-2h2v-2h-2v-12h-2.594l-6.406 11.745v2.255h7zm-4.861-4 4.861-8.912v8.912z"/><path d="m47 25h2v-2h2v-2h-2v-12h-2.594l-6.406 11.745v2.255h7zm-4.861-4 4.861-8.912v8.912z"/><path d="m27 22c0 1.654 1.346 3 3 3h4c1.654 0 3-1.346 3-3v-.586c1.29-1.316 2-3.054 2-4.899v-.515c0-3.859-3.141-7-7-7s-7 3.141-7 7v.515c0 1.846.71 3.583 2 4.899zm0-6c0-2.757 2.243-5 5-5s5 2.243 5 5v.515c0 1.336-.521 2.592-1.465 3.536l-.535.535v1.414c0 .552-.448 1-1 1h-1v-2h-2v2h-1c-.552 0-1-.448-1-1v-1.414l-.535-.535c-.944-.945-1.465-2.2-1.465-3.536z"/><circle cx="30" cy="15" r="1"/><circle cx="34" cy="15" r="1"/><path d="m58 11h-3v-5c0-2.757-2.243-5-5-5h-36c-2.757 0-5 2.243-5 5v5h-3c-2.757 0-5 2.243-5 5v30c0 2.757 2.243 5 5 5h15.963c-.168 1.595-.997 3.041-2.296 4h-2.667c-1.654 0-3 1.346-3 3v2c0 1.654 1.346 3 3 3h30c1.654 0 3-1.346 3-3v-2c0-1.654-1.346-3-3-3h-2.666c-1.299-.959-2.128-2.405-2.296-4h15.962c2.757 0 5-2.243 5-5v-30c0-2.757-2.243-5-5-5zm-47-5c0-1.654 1.346-3 3-3h36c1.654 0 3 1.346 3 3v22c0 1.654-1.346 3-3 3h-15.721l-1.911 5.734c-.107.318-.629.317-.736.001l-1.911-5.735h-15.721c-1.654 0-3-1.346-3-3zm3 27h14.279l1.456 4.369c.327.976 1.237 1.631 2.265 1.631s1.938-.655 2.265-1.632l1.456-4.368h14.279c2.757 0 5-2.243 5-5v-11h2v24h-50v-24h2v11c0 2.757 2.243 5 5 5zm34 25v2c0 .552-.448 1-1 1h-30c-.552 0-1-.448-1-1v-2c0-.552.448-1 1-1h30c.552 0 1 .448 1 1zm-6.471-3h-19.058c.858-1.155 1.378-2.536 1.492-4h16.075c.114 1.464.634 2.845 1.491 4zm19.471-9c0 1.654-1.346 3-3 3h-52c-1.654 0-3-1.346-3-3v-30c0-1.654 1.346-3 3-3h3v2h-2c-1.103 0-2 .897-2 2v24c0 1.103.897 2 2 2h50c1.103 0 2-.897 2-2v-24c0-1.103-.897-2-2-2h-2v-2h3c1.654 0 3 1.346 3 3z"/><path d="m17 5h2v2h-2z"/><path d="m13 5h2v2h-2z"/><path d="m21 5h2v2h-2z"/><path d="m41 27h2v2h-2z"/><path d="m45 27h2v2h-2z"/><path d="m49 27h2v2h-2z"/></g></g></svg>
